<?xml version="1.0" standalone="no"?>
<!DOCTYPE svg PUBLIC "-//W3C//DTD SVG 20010904//EN"
 "http://www.w3.org/TR/2001/REC-SVG-20010904/DTD/svg10.dtd">
<svg version="1.0" xmlns="http://www.w3.org/2000/svg"
 width="2480.000000pt" height="3508.000000pt" viewBox="0 0 2480.000000 3508.000000"
 preserveAspectRatio="xMidYMid meet">

<g transform="translate(0.000000,3508.000000) scale(0.100000,-0.100000)"
fill="#000000" stroke="none">
<path d="M8830 17662 c-91 -31 -136 -59 -173 -109 -83 -114 -99 -173 -88 -313
17 -202 95 -333 373 -629 54 -57 98 -112 98 -122 0 -24 -23 -35 -89 -44 -111
-15 -235 -82 -290 -156 -21 -28 -59 -49 -151 -84 -19 -7 -60 -23 -90 -35 -52
-21 -245 -80 -394 -121 -81 -22 -137 -24 -186 -4 -88 34 -121 45 -215 69 -187
50 -266 78 -281 101 -22 34 -59 252 -45 272 11 18 49 33 84 33 81 0 142 21
212 74 143 107 229 253 254 436 20 137 -8 261 -80 366 -134 194 -284 291 -408
263 -76 -17 -197 -86 -246 -141 -49 -54 -103 -159 -129 -249 -22 -76 -26 -282
-6 -374 8 -38 32 -103 52 -143 47 -90 48 -130 9 -203 -15 -30 -60 -114 -99
-187 -39 -73 -81 -166 -93 -205 -11 -40 -30 -99 -40 -132 -31 -100 -49 -187
-49 -240 0 -27 -10 -83 -22 -123 -20 -69 -21 -81 -10 -220 13 -173 38 -260
116 -392 55 -94 176 -221 237 -249 20 -9 50 -30 67 -46 34 -32 167 -112 242
-146 25 -11 59 -26 75 -33 79 -36 366 -116 415 -116 8 0 53 -11 100 -24 47
-14 117 -34 155 -45 97 -28 138 -66 171 -156 29 -78 47 -142 65 -228 7 -33 25
-79 41 -103 37 -59 83 -313 83 -464 0 -102 1 -108 43 -201 82 -183 232 -311
313 -268 35 18 39 28 39 93 0 76 -45 172 -130 274 -33 41 -61 79 -62 85 -5 39
-12 469 -8 512 2 17 -5 66 -15 110 -30 136 -30 141 -3 158 15 10 65 17 154 21
149 7 186 16 203 52 23 52 14 84 -36 131 -56 52 -102 78 -169 94 -61 15 -90
40 -99 87 -7 38 -61 205 -115 352 -17 47 -42 117 -54 155 -40 123 -111 247
-185 323 -85 86 -190 116 -336 94 -131 -20 -334 -141 -478 -285 -54 -54 -90
-72 -115 -58 -44 23 -106 116 -144 214 l-40 102 -1 172 c-2 165 -1 173 20 194
l22 22 143 -16 c234 -27 349 -30 509 -13 103 11 164 23 210 41 35 14 82 30
104 36 96 24 299 109 406 170 l86 49 99 0 c74 0 109 5 139 19 82 37 135 101
150 183 10 52 121 153 283 255 141 90 372 295 372 332 0 5 16 37 36 71 43 75
69 196 61 288 -12 125 -90 237 -205 294 -38 19 -64 23 -132 23 -83 0 -88 -1
-155 -42 -39 -24 -78 -56 -88 -73 -19 -32 -56 -47 -80 -33 -8 4 -38 43 -66 85
-29 43 -61 80 -74 84 -12 3 -42 16 -67 27 -62 28 -133 31 -200 9z m-628 -2568
c45 -29 100 -112 138 -208 41 -105 43 -112 25 -130 -22 -21 -51 -20 -105 5
-25 11 -81 33 -125 48 -76 26 -230 106 -267 139 -33 28 -21 49 55 98 133 86
203 98 279 48z"/>
</g>
</svg>
